<svg id="visual" viewBox="0 0 900 600" width="900" height="600" xmlns="http://www.w3.org/2000/svg" xmlns:xlink="http://www.w3.org/1999/xlink" version="1.1"><path d="M0 37L82 55L164 25L245 25L327 31L409 25L491 31L573 55L655 19L736 19L818 31L900 37L900 0L818 0L736 0L655 0L573 0L491 0L409 0L327 0L245 0L164 0L82 0L0 0Z" fill="#001122"></path><path d="M0 127L82 205L164 211L245 109L327 211L409 139L491 121L573 163L655 115L736 187L818 163L900 145L900 35L818 29L736 17L655 17L573 53L491 29L409 23L327 29L245 23L164 23L82 53L0 35Z" fill="#02172b"></path><path d="M0 295L82 307L164 271L245 289L327 271L409 241L491 319L573 289L655 301L736 253L818 265L900 331L900 143L818 161L736 185L655 113L573 161L491 119L409 137L327 209L245 107L164 209L82 203L0 125Z" fill="#011c35"></path><path d="M0 343L82 361L164 331L245 373L327 307L409 289L491 367L573 325L655 349L736 325L818 319L900 373L900 329L818 263L736 251L655 299L573 287L491 317L409 239L327 269L245 287L164 269L82 305L0 293Z" fill="#00203f"></path><path d="M0 385L82 379L164 367L245 391L327 349L409 325L491 385L573 343L655 367L736 361L818 337L900 391L900 371L818 317L736 323L655 347L573 323L491 365L409 287L327 305L245 371L164 329L82 359L0 341Z" fill="#002141"></path><path d="M0 445L82 403L164 433L245 439L327 409L409 379L491 451L573 397L655 439L736 403L818 397L900 463L900 389L818 335L736 359L655 365L573 341L491 383L409 323L327 347L245 389L164 365L82 377L0 383Z" fill="#00203f"></path><path d="M0 481L82 445L164 481L245 487L327 445L409 439L491 499L573 457L655 475L736 451L818 433L900 523L900 461L818 395L736 401L655 437L573 395L491 449L409 377L327 407L245 437L164 431L82 401L0 443Z" fill="#011c35"></path><path d="M0 523L82 475L164 511L245 535L327 493L409 487L491 559L573 511L655 541L736 517L818 481L900 547L900 521L818 431L736 449L655 473L573 455L491 497L409 437L327 443L245 485L164 479L82 443L0 479Z" fill="#02172b"></path><path d="M0 601L82 601L164 601L245 601L327 601L409 601L491 601L573 601L655 601L736 601L818 601L900 601L900 545L818 479L736 515L655 539L573 509L491 557L409 485L327 491L245 533L164 509L82 473L0 521Z" fill="#001122"></path></svg>