<svg id="visual" viewBox="0 0 900 600" width="900" height="600" xmlns="http://www.w3.org/2000/svg" xmlns:xlink="http://www.w3.org/1999/xlink" version="1.1"><rect width="900" height="600" fill="#FFFFFF"></rect><g><g transform="translate(548 258)"><path d="M0 -83L71.9 -41.5L71.9 41.5L0 83L-71.9 41.5L-71.9 -41.5Z" fill="none" stroke="#297EA6" stroke-width="1"></path></g><g transform="translate(792 268)"><path d="M0 -63L54.6 -31.5L54.6 31.5L0 63L-54.6 31.5L-54.6 -31.5Z" fill="none" stroke="#297EA6" stroke-width="1"></path></g><g transform="translate(521 591)"><path d="M0 -46L39.8 -23L39.8 23L0 46L-39.8 23L-39.8 -23Z" fill="none" stroke="#297EA6" stroke-width="1"></path></g><g transform="translate(758 441)"><path d="M0 -75L65 -37.5L65 37.5L0 75L-65 37.5L-65 -37.5Z" stroke="#297EA6" fill="none" stroke-width="1"></path></g><g transform="translate(437 41)"><path d="M0 -51L44.2 -25.5L44.2 25.5L0 51L-44.2 25.5L-44.2 -25.5Z" stroke="#297EA6" fill="none" stroke-width="1"></path></g><g transform="translate(58 508)"><path d="M0 -65L56.3 -32.5L56.3 32.5L0 65L-56.3 32.5L-56.3 -32.5Z" stroke="#297EA6" fill="none" stroke-width="1"></path></g><g transform="translate(211 117)"><path d="M0 -55L47.6 -27.5L47.6 27.5L0 55L-47.6 27.5L-47.6 -27.5Z" stroke="#297EA6" fill="none" stroke-width="1"></path></g><g transform="translate(279 301)"><path d="M0 -73L63.2 -36.5L63.2 36.5L0 73L-63.2 36.5L-63.2 -36.5Z" stroke="#297EA6" fill="none" stroke-width="1"></path></g><g transform="translate(5 133)"><path d="M0 -65L56.3 -32.5L56.3 32.5L0 65L-56.3 32.5L-56.3 -32.5Z" stroke="#297EA6" fill="none" stroke-width="1"></path></g><g transform="translate(826 103)"><path d="M0 -49L42.4 -24.5L42.4 24.5L0 49L-42.4 24.5L-42.4 -24.5Z" stroke="#297EA6" fill="none" stroke-width="1"></path></g><g transform="translate(481 419)"><path d="M0 -43L37.2 -21.5L37.2 21.5L0 43L-37.2 21.5L-37.2 -21.5Z" stroke="#297EA6" fill="none" stroke-width="1"></path></g><g transform="translate(300 562)"><path d="M0 -48L41.6 -24L41.6 24L0 48L-41.6 24L-41.6 -24Z" stroke="#297EA6" fill="none" stroke-width="1"></path></g><g transform="translate(662 27)"><path d="M0 -58L50.2 -29L50.2 29L0 58L-50.2 29L-50.2 -29Z" stroke="#297EA6" fill="none" stroke-width="1"></path></g></g></svg>